<?xml version="1.0" encoding="UTF-8" standalone="no"?>
<!DOCTYPE svg PUBLIC "-//W3C//DTD SVG 1.1//EN"
 "http://www.w3.org/Graphics/SVG/1.1/DTD/svg11.dtd">
<!-- Generated by graphviz version 2.26.3 (20100126.1600)
 -->
<!-- Title: G Pages: 1 -->
<svg width="6032pt" height="490pt"
 viewBox="0.00 0.00 6032.00 490.00" xmlns="http://www.w3.org/2000/svg" xmlns:xlink="http://www.w3.org/1999/xlink">
<g id="graph1" class="graph" transform="scale(1 1) rotate(0) translate(4 486)">
<title>G</title>
<polygon fill="white" stroke="white" points="-4,5 -4,-486 6029,-486 6029,5 -4,5"/>
<!-- 0 -->
<g id="node1" class="node"><title>0</title>
<ellipse fill="none" stroke="black" cx="2973" cy="-463" rx="159.099" ry="18.3848"/>
<text text-anchor="middle" x="2973" y="-459.4" font-family="Times Roman,serif" font-size="14.00">KER_EXIT_MSG_RECEIVEV/14</text>
</g>
<!-- 1 -->
<g id="node2" class="node"><title>1</title>
<ellipse fill="none" stroke="black" cx="2973" cy="-389" rx="149.2" ry="18.3848"/>
<text text-anchor="middle" x="2973" y="-385.4" font-family="Times Roman,serif" font-size="14.00">KER_CALL_MSG_REPLYV/15</text>
</g>
<!-- 0&#45;&gt;1 -->
<g id="edge2" class="edge"><title>0&#45;&gt;1</title>
<path fill="none" stroke="black" d="M2973,-444.327C2973,-436.264 2973,-426.648 2973,-417.711"/>
<polygon fill="black" stroke="black" points="2976.5,-417.667 2973,-407.667 2969.5,-417.667 2976.5,-417.667"/>
</g>
<!-- 2 -->
<g id="node3" class="node"><title>2</title>
<ellipse fill="none" stroke="black" cx="182" cy="-315" rx="181.934" ry="18.3848"/>
<text text-anchor="middle" x="182" y="-311.4" font-family="Times Roman,serif" font-size="14.00">COMM_REPLY_MESSAGE_20501_1</text>
</g>
<!-- 1&#45;&gt;2 -->
<g id="edge4" class="edge"><title>1&#45;&gt;2</title>
<path fill="none" stroke="black" d="M2824.54,-387.385C2347.21,-381.951 855.08,-363.032 373,-334 354.234,-332.87 334.464,-331.315 315.042,-329.578"/>
<polygon fill="black" stroke="black" points="315.202,-326.078 304.925,-328.654 314.565,-333.049 315.202,-326.078"/>
</g>
<!-- 9 -->
<g id="node10" class="node"><title>9</title>
<ellipse fill="none" stroke="black" cx="564" cy="-315" rx="181.934" ry="18.3848"/>
<text text-anchor="middle" x="564" y="-311.4" font-family="Times Roman,serif" font-size="14.00">COMM_REPLY_MESSAGE_61465_3</text>
</g>
<!-- 1&#45;&gt;9 -->
<g id="edge18" class="edge"><title>1&#45;&gt;9</title>
<path fill="none" stroke="black" d="M2824.91,-386.767C2396.26,-380.074 1159.27,-359.085 755,-334 736.378,-332.844 716.765,-331.286 697.486,-329.555"/>
<polygon fill="black" stroke="black" points="697.719,-326.062 687.441,-328.636 697.081,-333.033 697.719,-326.062"/>
</g>
<!-- 11 -->
<g id="node12" class="node"><title>11</title>
<ellipse fill="none" stroke="black" cx="946" cy="-315" rx="181.934" ry="18.3848"/>
<text text-anchor="middle" x="946" y="-311.4" font-family="Times Roman,serif" font-size="14.00">COMM_REPLY_MESSAGE_61465_2</text>
</g>
<!-- 1&#45;&gt;11 -->
<g id="edge24" class="edge"><title>1&#45;&gt;11</title>
<path fill="none" stroke="black" d="M2824.1,-388.029C2511.3,-385.221 1763.12,-374.471 1137,-334 1118.52,-332.806 1099.07,-331.235 1079.93,-329.507"/>
<polygon fill="black" stroke="black" points="1080.24,-326.02 1069.96,-328.59 1079.6,-332.991 1080.24,-326.02"/>
</g>
<!-- 13 -->
<g id="node14" class="node"><title>13</title>
<ellipse fill="none" stroke="black" cx="1341" cy="-315" rx="195.161" ry="18.3848"/>
<text text-anchor="middle" x="1341" y="-311.4" font-family="Times Roman,serif" font-size="14.00">COMM_REPLY_MESSAGE_1347613_1</text>
</g>
<!-- 1&#45;&gt;13 -->
<g id="edge30" class="edge"><title>1&#45;&gt;13</title>
<path fill="none" stroke="black" d="M2825.88,-385.971C2566.79,-380.048 2012.28,-364.736 1545,-334 1525.49,-332.717 1504.96,-331.109 1484.73,-329.375"/>
<polygon fill="black" stroke="black" points="1484.78,-325.866 1474.52,-328.486 1484.18,-332.839 1484.78,-325.866"/>
</g>
<!-- 15 -->
<g id="node16" class="node"><title>15</title>
<ellipse fill="none" stroke="black" cx="1749" cy="-315" rx="195.161" ry="18.3848"/>
<text text-anchor="middle" x="1749" y="-311.4" font-family="Times Roman,serif" font-size="14.00">COMM_REPLY_MESSAGE_1355805_1</text>
</g>
<!-- 1&#45;&gt;15 -->
<g id="edge36" class="edge"><title>1&#45;&gt;15</title>
<path fill="none" stroke="black" d="M2831.4,-383.111C2634.33,-374.518 2266.27,-357.026 1953,-334 1933.96,-332.6 1913.93,-330.952 1894.17,-329.221"/>
<polygon fill="black" stroke="black" points="1894.45,-325.733 1884.18,-328.338 1893.84,-332.706 1894.45,-325.733"/>
</g>
<!-- 17 -->
<g id="node18" class="node"><title>17</title>
<ellipse fill="none" stroke="black" cx="2157" cy="-315" rx="195.161" ry="18.3848"/>
<text text-anchor="middle" x="2157" y="-311.4" font-family="Times Roman,serif" font-size="14.00">COMM_REPLY_MESSAGE_1392669_1</text>
</g>
<!-- 1&#45;&gt;17 -->
<g id="edge42" class="edge"><title>1&#45;&gt;17</title>
<path fill="none" stroke="black" d="M2851.65,-378.211C2728.16,-367.204 2531.24,-349.578 2361,-334 2343.29,-332.38 2324.72,-330.668 2306.3,-328.961"/>
<polygon fill="black" stroke="black" points="2306.37,-325.453 2296.08,-328.015 2305.72,-332.423 2306.37,-325.453"/>
</g>
<!-- 19 -->
<g id="node20" class="node"><title>19</title>
<ellipse fill="none" stroke="black" cx="2565" cy="-315" rx="195.161" ry="18.3848"/>
<text text-anchor="middle" x="2565" y="-311.4" font-family="Times Roman,serif" font-size="14.00">COMM_REPLY_MESSAGE_1400861_1</text>
</g>
<!-- 1&#45;&gt;19 -->
<g id="edge48" class="edge"><title>1&#45;&gt;19</title>
<path fill="none" stroke="black" d="M2888.46,-373.667C2823.61,-361.905 2733.9,-345.633 2665.39,-333.209"/>
<polygon fill="black" stroke="black" points="2665.91,-329.746 2655.45,-331.405 2664.66,-336.633 2665.91,-329.746"/>
</g>
<!-- 21 -->
<g id="node22" class="node"><title>21</title>
<ellipse fill="none" stroke="black" cx="2973" cy="-315" rx="195.161" ry="18.3848"/>
<text text-anchor="middle" x="2973" y="-311.4" font-family="Times Roman,serif" font-size="14.00">COMM_REPLY_MESSAGE_1437725_1</text>
</g>
<!-- 1&#45;&gt;21 -->
<g id="edge54" class="edge"><title>1&#45;&gt;21</title>
<path fill="none" stroke="black" d="M2973,-370.327C2973,-362.264 2973,-352.648 2973,-343.711"/>
<polygon fill="black" stroke="black" points="2976.5,-343.667 2973,-333.667 2969.5,-343.667 2976.5,-343.667"/>
</g>
<!-- 23 -->
<g id="node24" class="node"><title>23</title>
<ellipse fill="none" stroke="black" cx="3381" cy="-315" rx="195.161" ry="18.3848"/>
<text text-anchor="middle" x="3381" y="-311.4" font-family="Times Roman,serif" font-size="14.00">COMM_REPLY_MESSAGE_1445917_1</text>
</g>
<!-- 1&#45;&gt;23 -->
<g id="edge60" class="edge"><title>1&#45;&gt;23</title>
<path fill="none" stroke="black" d="M3057.54,-373.667C3122.39,-361.905 3212.1,-345.633 3280.61,-333.209"/>
<polygon fill="black" stroke="black" points="3281.34,-336.633 3290.55,-331.405 3280.09,-329.746 3281.34,-336.633"/>
</g>
<!-- 25 -->
<g id="node26" class="node"><title>25</title>
<ellipse fill="none" stroke="black" cx="3789" cy="-315" rx="195.161" ry="18.3848"/>
<text text-anchor="middle" x="3789" y="-311.4" font-family="Times Roman,serif" font-size="14.00">COMM_REPLY_MESSAGE_1482781_1</text>
</g>
<!-- 1&#45;&gt;25 -->
<g id="edge66" class="edge"><title>1&#45;&gt;25</title>
<path fill="none" stroke="black" d="M3094.35,-378.211C3217.84,-367.204 3414.76,-349.578 3585,-334 3602.71,-332.38 3621.28,-330.668 3639.7,-328.961"/>
<polygon fill="black" stroke="black" points="3640.28,-332.423 3649.92,-328.015 3639.63,-325.453 3640.28,-332.423"/>
</g>
<!-- 27 -->
<g id="node28" class="node"><title>27</title>
<ellipse fill="none" stroke="black" cx="4197" cy="-315" rx="195.161" ry="18.3848"/>
<text text-anchor="middle" x="4197" y="-311.4" font-family="Times Roman,serif" font-size="14.00">COMM_REPLY_MESSAGE_1490973_1</text>
</g>
<!-- 1&#45;&gt;27 -->
<g id="edge72" class="edge"><title>1&#45;&gt;27</title>
<path fill="none" stroke="black" d="M3114.6,-383.111C3311.67,-374.518 3679.73,-357.026 3993,-334 4012.04,-332.6 4032.07,-330.952 4051.83,-329.221"/>
<polygon fill="black" stroke="black" points="4052.16,-332.706 4061.82,-328.338 4051.55,-325.733 4052.16,-332.706"/>
</g>
<!-- 29 -->
<g id="node30" class="node"><title>29</title>
<ellipse fill="none" stroke="black" cx="4605" cy="-315" rx="195.161" ry="18.3848"/>
<text text-anchor="middle" x="4605" y="-311.4" font-family="Times Roman,serif" font-size="14.00">COMM_REPLY_MESSAGE_1527837_1</text>
</g>
<!-- 1&#45;&gt;29 -->
<g id="edge78" class="edge"><title>1&#45;&gt;29</title>
<path fill="none" stroke="black" d="M3120.12,-385.971C3379.21,-380.048 3933.72,-364.736 4401,-334 4420.51,-332.717 4441.04,-331.109 4461.27,-329.375"/>
<polygon fill="black" stroke="black" points="4461.82,-332.839 4471.48,-328.486 4461.22,-325.866 4461.82,-332.839"/>
</g>
<!-- 31 -->
<g id="node32" class="node"><title>31</title>
<ellipse fill="none" stroke="black" cx="5013" cy="-315" rx="195.161" ry="18.3848"/>
<text text-anchor="middle" x="5013" y="-311.4" font-family="Times Roman,serif" font-size="14.00">COMM_REPLY_MESSAGE_1536029_1</text>
</g>
<!-- 1&#45;&gt;31 -->
<g id="edge84" class="edge"><title>1&#45;&gt;31</title>
<path fill="none" stroke="black" d="M3121.88,-387.713C3434.64,-384.311 4182.76,-372.505 4809,-334 4828.83,-332.781 4849.72,-331.189 4870.26,-329.445"/>
<polygon fill="black" stroke="black" points="4870.65,-332.925 4880.31,-328.578 4870.05,-325.951 4870.65,-332.925"/>
</g>
<!-- 33 -->
<g id="node34" class="node"><title>33</title>
<ellipse fill="none" stroke="black" cx="5421" cy="-315" rx="195.161" ry="18.3848"/>
<text text-anchor="middle" x="5421" y="-311.4" font-family="Times Roman,serif" font-size="14.00">COMM_REPLY_MESSAGE_1572893_1</text>
</g>
<!-- 1&#45;&gt;33 -->
<g id="edge90" class="edge"><title>1&#45;&gt;33</title>
<path fill="none" stroke="black" d="M3120.89,-386.698C3552.75,-379.764 4807.3,-358.072 5217,-334 5236.99,-332.826 5258.05,-331.249 5278.74,-329.504"/>
<polygon fill="black" stroke="black" points="5279.2,-332.978 5288.87,-328.635 5278.6,-326.003 5279.2,-332.978"/>
</g>
<!-- 35 -->
<g id="node36" class="node"><title>35</title>
<ellipse fill="none" stroke="black" cx="5829" cy="-315" rx="195.161" ry="18.3848"/>
<text text-anchor="middle" x="5829" y="-311.4" font-family="Times Roman,serif" font-size="14.00">COMM_REPLY_MESSAGE_1581085_1</text>
</g>
<!-- 1&#45;&gt;35 -->
<g id="edge96" class="edge"><title>1&#45;&gt;35</title>
<path fill="none" stroke="black" d="M3121.45,-387.333C3605.04,-381.681 5132.18,-362.024 5625,-334 5645.14,-332.855 5666.37,-331.284 5687.22,-329.533"/>
<polygon fill="black" stroke="black" points="5687.75,-333 5697.42,-328.66 5687.16,-326.026 5687.75,-333"/>
</g>
<!-- 3 -->
<g id="node4" class="node"><title>3</title>
<ellipse fill="none" stroke="black" cx="236" cy="-241" rx="155.063" ry="18.3848"/>
<text text-anchor="middle" x="236" y="-237.4" font-family="Times Roman,serif" font-size="14.00">THREAD_THREADY_20501_1</text>
</g>
<!-- 2&#45;&gt;3 -->
<g id="edge6" class="edge"><title>2&#45;&gt;3</title>
<path fill="none" stroke="black" d="M195.626,-296.327C201.894,-287.738 209.447,-277.387 216.317,-267.972"/>
<polygon fill="black" stroke="black" points="219.31,-269.808 222.378,-259.667 213.656,-265.682 219.31,-269.808"/>
</g>
<!-- 4 -->
<g id="node5" class="node"><title>4</title>
<ellipse fill="none" stroke="black" cx="2973" cy="-167" rx="147.078" ry="18.3848"/>
<text text-anchor="middle" x="2973" y="-163.4" font-family="Times Roman,serif" font-size="14.00">KER_EXIT_MSG_REPLYV/15</text>
</g>
<!-- 3&#45;&gt;4 -->
<g id="edge8" class="edge"><title>3&#45;&gt;4</title>
<path fill="none" stroke="black" d="M349,-228.296C374.617,-225.823 401.72,-223.528 427,-222 895.312,-193.691 2337.04,-174.518 2816.28,-168.791"/>
<polygon fill="black" stroke="black" points="2816.43,-172.289 2826.39,-168.67 2816.35,-165.29 2816.43,-172.289"/>
</g>
<!-- 5 -->
<g id="node6" class="node"><title>5</title>
<ellipse fill="none" stroke="black" cx="2973" cy="-93" rx="161.22" ry="18.3848"/>
<text text-anchor="middle" x="2973" y="-89.4" font-family="Times Roman,serif" font-size="14.00">KER_CALL_MSG_RECEIVEV/14</text>
</g>
<!-- 4&#45;&gt;5 -->
<g id="edge10" class="edge"><title>4&#45;&gt;5</title>
<path fill="none" stroke="black" d="M2973,-148.327C2973,-140.264 2973,-130.648 2973,-121.711"/>
<polygon fill="black" stroke="black" points="2976.5,-121.667 2973,-111.667 2969.5,-121.667 2976.5,-121.667"/>
</g>
<!-- 6 -->
<g id="node7" class="node"><title>6</title>
<ellipse fill="none" stroke="black" cx="2677" cy="-19" rx="138.801" ry="18.3848"/>
<text text-anchor="middle" x="2677" y="-15.4" font-family="Times Roman,serif" font-size="14.00">THREAD_THRECEIVE_1_4</text>
</g>
<!-- 5&#45;&gt;6 -->
<g id="edge12" class="edge"><title>5&#45;&gt;6</title>
<path fill="none" stroke="black" d="M2905.46,-76.1157C2859.82,-64.706 2799.52,-49.6298 2752.33,-37.8317"/>
<polygon fill="black" stroke="black" points="2753.02,-34.3964 2742.47,-35.3664 2751.32,-41.1874 2753.02,-34.3964"/>
</g>
<!-- 7 -->
<g id="node8" class="node"><title>7</title>
<ellipse fill="none" stroke="black" cx="2973" cy="-19" rx="138.801" ry="18.3848"/>
<text text-anchor="middle" x="2973" y="-15.4" font-family="Times Roman,serif" font-size="14.00">THREAD_THRECEIVE_1_7</text>
</g>
<!-- 5&#45;&gt;7 -->
<g id="edge14" class="edge"><title>5&#45;&gt;7</title>
<path fill="none" stroke="black" d="M2973,-74.3267C2973,-66.2639 2973,-56.6477 2973,-47.7115"/>
<polygon fill="black" stroke="black" points="2976.5,-47.6673 2973,-37.6674 2969.5,-47.6674 2976.5,-47.6673"/>
</g>
<!-- 8 -->
<g id="node9" class="node"><title>8</title>
<ellipse fill="none" stroke="black" cx="3269" cy="-19" rx="138.801" ry="18.3848"/>
<text text-anchor="middle" x="3269" y="-15.4" font-family="Times Roman,serif" font-size="14.00">THREAD_THRECEIVE_1_6</text>
</g>
<!-- 5&#45;&gt;8 -->
<g id="edge16" class="edge"><title>5&#45;&gt;8</title>
<path fill="none" stroke="black" d="M3040.54,-76.1157C3086.18,-64.706 3146.48,-49.6298 3193.67,-37.8317"/>
<polygon fill="black" stroke="black" points="3194.68,-41.1874 3203.53,-35.3664 3192.98,-34.3964 3194.68,-41.1874"/>
</g>
<!-- 10 -->
<g id="node11" class="node"><title>10</title>
<ellipse fill="none" stroke="black" cx="591" cy="-241" rx="155.063" ry="18.3848"/>
<text text-anchor="middle" x="591" y="-237.4" font-family="Times Roman,serif" font-size="14.00">THREAD_THREADY_61465_3</text>
</g>
<!-- 9&#45;&gt;10 -->
<g id="edge20" class="edge"><title>9&#45;&gt;10</title>
<path fill="none" stroke="black" d="M570.813,-296.327C573.819,-288.089 577.417,-278.229 580.736,-269.13"/>
<polygon fill="black" stroke="black" points="584.049,-270.261 584.189,-259.667 577.473,-267.862 584.049,-270.261"/>
</g>
<!-- 10&#45;&gt;4 -->
<g id="edge22" class="edge"><title>10&#45;&gt;4</title>
<path fill="none" stroke="black" d="M710.841,-229.221C742.714,-226.453 777.138,-223.792 809,-222 1559.73,-179.784 2458.81,-169.961 2815.79,-167.684"/>
<polygon fill="black" stroke="black" points="2815.96,-171.183 2825.94,-167.62 2815.91,-164.183 2815.96,-171.183"/>
</g>
<!-- 12 -->
<g id="node13" class="node"><title>12</title>
<ellipse fill="none" stroke="black" cx="973" cy="-241" rx="155.063" ry="18.3848"/>
<text text-anchor="middle" x="973" y="-237.4" font-family="Times Roman,serif" font-size="14.00">THREAD_THREADY_61465_2</text>
</g>
<!-- 11&#45;&gt;12 -->
<g id="edge26" class="edge"><title>11&#45;&gt;12</title>
<path fill="none" stroke="black" d="M952.813,-296.327C955.819,-288.089 959.417,-278.229 962.736,-269.13"/>
<polygon fill="black" stroke="black" points="966.049,-270.261 966.189,-259.667 959.473,-267.862 966.049,-270.261"/>
</g>
<!-- 12&#45;&gt;4 -->
<g id="edge28" class="edge"><title>12&#45;&gt;4</title>
<path fill="none" stroke="black" d="M1093.42,-229.289C1125.13,-226.538 1159.33,-223.867 1191,-222 1790.77,-186.636 2505.51,-173.28 2816.06,-168.889"/>
<polygon fill="black" stroke="black" points="2816.53,-172.383 2826.48,-168.743 2816.43,-165.383 2816.53,-172.383"/>
</g>
<!-- 14 -->
<g id="node15" class="node"><title>14</title>
<ellipse fill="none" stroke="black" cx="1368" cy="-241" rx="167.792" ry="18.3848"/>
<text text-anchor="middle" x="1368" y="-237.4" font-family="Times Roman,serif" font-size="14.00">THREAD_THREADY_1347613_1</text>
</g>
<!-- 13&#45;&gt;14 -->
<g id="edge32" class="edge"><title>13&#45;&gt;14</title>
<path fill="none" stroke="black" d="M1347.81,-296.327C1350.82,-288.089 1354.42,-278.229 1357.74,-269.13"/>
<polygon fill="black" stroke="black" points="1361.05,-270.261 1361.19,-259.667 1354.47,-267.862 1361.05,-270.261"/>
</g>
<!-- 14&#45;&gt;4 -->
<g id="edge34" class="edge"><title>14&#45;&gt;4</title>
<path fill="none" stroke="black" d="M1498.34,-229.315C1531.18,-226.637 1566.37,-223.994 1599,-222 2041.37,-194.965 2564.71,-178.217 2818.95,-171.053"/>
<polygon fill="black" stroke="black" points="2819.09,-174.551 2828.99,-170.771 2818.9,-167.553 2819.09,-174.551"/>
</g>
<!-- 16 -->
<g id="node17" class="node"><title>16</title>
<ellipse fill="none" stroke="black" cx="1776" cy="-241" rx="167.792" ry="18.3848"/>
<text text-anchor="middle" x="1776" y="-237.4" font-family="Times Roman,serif" font-size="14.00">THREAD_THREADY_1355805_1</text>
</g>
<!-- 15&#45;&gt;16 -->
<g id="edge38" class="edge"><title>15&#45;&gt;16</title>
<path fill="none" stroke="black" d="M1755.81,-296.327C1758.82,-288.089 1762.42,-278.229 1765.74,-269.13"/>
<polygon fill="black" stroke="black" points="1769.05,-270.261 1769.19,-259.667 1762.47,-267.862 1769.05,-270.261"/>
</g>
<!-- 16&#45;&gt;4 -->
<g id="edge40" class="edge"><title>16&#45;&gt;4</title>
<path fill="none" stroke="black" d="M1908.19,-229.55C1940.5,-226.911 1974.99,-224.228 2007,-222 2296.95,-201.824 2636.25,-183.796 2825.73,-174.229"/>
<polygon fill="black" stroke="black" points="2825.95,-177.723 2835.76,-173.724 2825.59,-170.732 2825.95,-177.723"/>
</g>
<!-- 18 -->
<g id="node19" class="node"><title>18</title>
<ellipse fill="none" stroke="black" cx="2184" cy="-241" rx="167.792" ry="18.3848"/>
<text text-anchor="middle" x="2184" y="-237.4" font-family="Times Roman,serif" font-size="14.00">THREAD_THREADY_1392669_1</text>
</g>
<!-- 17&#45;&gt;18 -->
<g id="edge44" class="edge"><title>17&#45;&gt;18</title>
<path fill="none" stroke="black" d="M2163.81,-296.327C2166.82,-288.089 2170.42,-278.229 2173.74,-269.13"/>
<polygon fill="black" stroke="black" points="2177.05,-270.261 2177.19,-259.667 2170.47,-267.862 2177.05,-270.261"/>
</g>
<!-- 18&#45;&gt;4 -->
<g id="edge46" class="edge"><title>18&#45;&gt;4</title>
<path fill="none" stroke="black" d="M2312.08,-228.987C2458.94,-215.213 2698.26,-192.768 2845.06,-178.999"/>
<polygon fill="black" stroke="black" points="2845.4,-182.483 2855.03,-178.064 2844.75,-175.514 2845.4,-182.483"/>
</g>
<!-- 20 -->
<g id="node21" class="node"><title>20</title>
<ellipse fill="none" stroke="black" cx="2592" cy="-241" rx="167.792" ry="18.3848"/>
<text text-anchor="middle" x="2592" y="-237.4" font-family="Times Roman,serif" font-size="14.00">THREAD_THREADY_1400861_1</text>
</g>
<!-- 19&#45;&gt;20 -->
<g id="edge50" class="edge"><title>19&#45;&gt;20</title>
<path fill="none" stroke="black" d="M2571.81,-296.327C2574.82,-288.089 2578.42,-278.229 2581.74,-269.13"/>
<polygon fill="black" stroke="black" points="2585.05,-270.261 2585.19,-259.667 2578.47,-267.862 2585.05,-270.261"/>
</g>
<!-- 20&#45;&gt;4 -->
<g id="edge52" class="edge"><title>20&#45;&gt;4</title>
<path fill="none" stroke="black" d="M2675.14,-224.852C2736.56,-212.923 2820.08,-196.702 2883.05,-184.471"/>
<polygon fill="black" stroke="black" points="2883.82,-187.886 2892.97,-182.543 2882.49,-181.014 2883.82,-187.886"/>
</g>
<!-- 22 -->
<g id="node23" class="node"><title>22</title>
<ellipse fill="none" stroke="black" cx="2973" cy="-241" rx="167.792" ry="18.3848"/>
<text text-anchor="middle" x="2973" y="-237.4" font-family="Times Roman,serif" font-size="14.00">THREAD_THREADY_1437725_1</text>
</g>
<!-- 21&#45;&gt;22 -->
<g id="edge56" class="edge"><title>21&#45;&gt;22</title>
<path fill="none" stroke="black" d="M2973,-296.327C2973,-288.264 2973,-278.648 2973,-269.711"/>
<polygon fill="black" stroke="black" points="2976.5,-269.667 2973,-259.667 2969.5,-269.667 2976.5,-269.667"/>
</g>
<!-- 22&#45;&gt;4 -->
<g id="edge58" class="edge"><title>22&#45;&gt;4</title>
<path fill="none" stroke="black" d="M2973,-222.327C2973,-214.264 2973,-204.648 2973,-195.711"/>
<polygon fill="black" stroke="black" points="2976.5,-195.667 2973,-185.667 2969.5,-195.667 2976.5,-195.667"/>
</g>
<!-- 24 -->
<g id="node25" class="node"><title>24</title>
<ellipse fill="none" stroke="black" cx="3330" cy="-241" rx="167.792" ry="18.3848"/>
<text text-anchor="middle" x="3330" y="-237.4" font-family="Times Roman,serif" font-size="14.00">THREAD_THREADY_1445917_1</text>
</g>
<!-- 23&#45;&gt;24 -->
<g id="edge62" class="edge"><title>23&#45;&gt;24</title>
<path fill="none" stroke="black" d="M3368.13,-296.327C3362.21,-287.738 3355.08,-277.387 3348.59,-267.972"/>
<polygon fill="black" stroke="black" points="3351.42,-265.915 3342.87,-259.667 3345.66,-269.887 3351.42,-265.915"/>
</g>
<!-- 24&#45;&gt;4 -->
<g id="edge64" class="edge"><title>24&#45;&gt;4</title>
<path fill="none" stroke="black" d="M3250.77,-224.577C3194.07,-212.824 3117.77,-197.008 3059.49,-184.927"/>
<polygon fill="black" stroke="black" points="3060.06,-181.472 3049.56,-182.869 3058.64,-188.326 3060.06,-181.472"/>
</g>
<!-- 26 -->
<g id="node27" class="node"><title>26</title>
<ellipse fill="none" stroke="black" cx="3690" cy="-241" rx="167.792" ry="18.3848"/>
<text text-anchor="middle" x="3690" y="-237.4" font-family="Times Roman,serif" font-size="14.00">THREAD_THREADY_1482781_1</text>
</g>
<!-- 25&#45;&gt;26 -->
<g id="edge68" class="edge"><title>25&#45;&gt;26</title>
<path fill="none" stroke="black" d="M3764.27,-296.518C3751.75,-287.158 3736.38,-275.669 3722.88,-265.576"/>
<polygon fill="black" stroke="black" points="3724.86,-262.687 3714.75,-259.503 3720.67,-268.294 3724.86,-262.687"/>
</g>
<!-- 26&#45;&gt;4 -->
<g id="edge70" class="edge"><title>26&#45;&gt;4</title>
<path fill="none" stroke="black" d="M3567.45,-228.262C3547.25,-226.167 3526.54,-224.021 3507,-222 3366.53,-207.474 3205.28,-190.876 3097.05,-179.747"/>
<polygon fill="black" stroke="black" points="3097.37,-176.262 3087.07,-178.721 3096.66,-183.226 3097.37,-176.262"/>
</g>
<!-- 28 -->
<g id="node29" class="node"><title>28</title>
<ellipse fill="none" stroke="black" cx="4056" cy="-241" rx="167.792" ry="18.3848"/>
<text text-anchor="middle" x="4056" y="-237.4" font-family="Times Roman,serif" font-size="14.00">THREAD_THREADY_1490973_1</text>
</g>
<!-- 27&#45;&gt;28 -->
<g id="edge74" class="edge"><title>27&#45;&gt;28</title>
<path fill="none" stroke="black" d="M4162.15,-296.708C4143.33,-286.835 4119.93,-274.551 4099.89,-264.032"/>
<polygon fill="black" stroke="black" points="4101.42,-260.886 4090.94,-259.338 4098.17,-267.084 4101.42,-260.886"/>
</g>
<!-- 28&#45;&gt;4 -->
<g id="edge76" class="edge"><title>28&#45;&gt;4</title>
<path fill="none" stroke="black" d="M3935.07,-228.14C3912.46,-225.935 3889.02,-223.784 3867,-222 3604.35,-200.726 3297.69,-183.517 3120.37,-174.313"/>
<polygon fill="black" stroke="black" points="3120.36,-170.808 3110.19,-173.786 3120,-177.798 3120.36,-170.808"/>
</g>
<!-- 30 -->
<g id="node31" class="node"><title>30</title>
<ellipse fill="none" stroke="black" cx="4434" cy="-241" rx="167.792" ry="18.3848"/>
<text text-anchor="middle" x="4434" y="-237.4" font-family="Times Roman,serif" font-size="14.00">THREAD_THREADY_1527837_1</text>
</g>
<!-- 29&#45;&gt;30 -->
<g id="edge80" class="edge"><title>29&#45;&gt;30</title>
<path fill="none" stroke="black" d="M4563.17,-296.898C4539.58,-286.691 4509.94,-273.863 4485,-263.071"/>
<polygon fill="black" stroke="black" points="4486.26,-259.803 4475.7,-259.044 4483.48,-266.227 4486.26,-259.803"/>
</g>
<!-- 30&#45;&gt;4 -->
<g id="edge82" class="edge"><title>30&#45;&gt;4</title>
<path fill="none" stroke="black" d="M4311.04,-228.382C4285.28,-226.018 4258.26,-223.744 4233,-222 3834.61,-194.493 3364.36,-178.264 3126.83,-171.205"/>
<polygon fill="black" stroke="black" points="3126.84,-167.704 3116.74,-170.907 3126.64,-174.701 3126.84,-167.704"/>
</g>
<!-- 32 -->
<g id="node33" class="node"><title>32</title>
<ellipse fill="none" stroke="black" cx="4835" cy="-241" rx="167.792" ry="18.3848"/>
<text text-anchor="middle" x="4835" y="-237.4" font-family="Times Roman,serif" font-size="14.00">THREAD_THREADY_1536029_1</text>
</g>
<!-- 31&#45;&gt;32 -->
<g id="edge86" class="edge"><title>31&#45;&gt;32</title>
<path fill="none" stroke="black" d="M4969.46,-296.898C4944.71,-286.608 4913.55,-273.654 4887.46,-262.807"/>
<polygon fill="black" stroke="black" points="4888.67,-259.523 4878.09,-258.916 4885.98,-265.986 4888.67,-259.523"/>
</g>
<!-- 32&#45;&gt;4 -->
<g id="edge88" class="edge"><title>32&#45;&gt;4</title>
<path fill="none" stroke="black" d="M4706.85,-228.997C4675.52,-226.375 4642.07,-223.838 4611,-222 4067.12,-189.824 3420.46,-175.011 3129.05,-169.588"/>
<polygon fill="black" stroke="black" points="3128.9,-166.085 3118.84,-169.399 3128.77,-173.084 3128.9,-166.085"/>
</g>
<!-- 34 -->
<g id="node35" class="node"><title>34</title>
<ellipse fill="none" stroke="black" cx="5283" cy="-241" rx="167.792" ry="18.3848"/>
<text text-anchor="middle" x="5283" y="-237.4" font-family="Times Roman,serif" font-size="14.00">THREAD_THREADY_1572893_1</text>
</g>
<!-- 33&#45;&gt;34 -->
<g id="edge92" class="edge"><title>33&#45;&gt;34</title>
<path fill="none" stroke="black" d="M5386.89,-296.708C5368.56,-286.88 5345.77,-274.661 5326.22,-264.174"/>
<polygon fill="black" stroke="black" points="5327.67,-260.979 5317.2,-259.338 5324.36,-267.149 5327.67,-260.979"/>
</g>
<!-- 34&#45;&gt;4 -->
<g id="edge94" class="edge"><title>34&#45;&gt;4</title>
<path fill="none" stroke="black" d="M5145.9,-230.236C5103.04,-227.181 5055.58,-224.114 5012,-222 4310.36,-187.956 3471.8,-173.648 3129.8,-168.931"/>
<polygon fill="black" stroke="black" points="3129.63,-165.429 3119.58,-168.791 3129.53,-172.428 3129.63,-165.429"/>
</g>
<!-- 36 -->
<g id="node37" class="node"><title>36</title>
<ellipse fill="none" stroke="black" cx="5826" cy="-241" rx="167.792" ry="18.3848"/>
<text text-anchor="middle" x="5826" y="-237.4" font-family="Times Roman,serif" font-size="14.00">THREAD_THREADY_1581085_1</text>
</g>
<!-- 35&#45;&gt;36 -->
<g id="edge98" class="edge"><title>35&#45;&gt;36</title>
<path fill="none" stroke="black" d="M5828.24,-296.327C5827.92,-288.264 5827.53,-278.648 5827.16,-269.711"/>
<polygon fill="black" stroke="black" points="5830.66,-269.517 5826.76,-259.667 5823.66,-269.801 5830.66,-269.517"/>
</g>
<!-- 36&#45;&gt;4 -->
<g id="edge100" class="edge"><title>36&#45;&gt;4</title>
<path fill="none" stroke="black" d="M5677.35,-232.278C5610.88,-228.637 5531.53,-224.647 5460,-222 4579.29,-189.409 3522.38,-173.829 3129.8,-168.848"/>
<polygon fill="black" stroke="black" points="3129.55,-165.345 3119.51,-168.718 3129.46,-172.345 3129.55,-165.345"/>
</g>
</g>
</svg>
